<svg width="56" height="54" viewBox="0 0 56 54" fill="none" xmlns="http://www.w3.org/2000/svg">
<path d="M9.46581 30.5338C17.8711 28.3189 26.5078 28.9576 34.2574 30.2136C39.3383 31.037 43.6475 32.9539 48.6241 31.6108C58.6856 28.8955 52.7766 20.0913 45.1978 18.5107C40.9012 17.6147 38.9084 19.6767 35.4189 20.4043C35.0402 20.4832 27.9779 8.52009 14.9865 15.7436C5.33246 21.1114 6.60402 40.565 6.60402 48.8088M10.4344 32.6549C10.0096 38.0756 11.9017 43.5192 11.9017 48.8088M32.5488 32.6549C32.5488 39.035 32.5488 45.5338 32.5488 51.8857M37.137 33.4242C37.5817 39.6275 38.368 45.6208 38.6664 51.8857M7.31345 28.8088C4.66815 19.9708 3.46923 10.8434 1.96051 1.88571M44.1916 15.9488C44.2432 15.7451 43.7794 13.9897 44.1916 14.213C46.1461 15.2717 44.4798 16.5407 47.2471 15.2917C47.4489 15.2007 48.0848 14.7221 48.3097 14.7524C48.9053 14.8332 49.1832 16.8863 49.3723 17.2703" stroke="#232323" stroke-width="3" stroke-linecap="round" stroke-linejoin="round"/>
</svg>
