<svg width="38" height="54" viewBox="0 0 38 54" fill="none" xmlns="http://www.w3.org/2000/svg">
<path d="M26.1849 15.2861C33.9544 4.50121 22.0277 5.97343 20.2967 4.99795C19.6884 4.65564 19.09 1.3509 17.7364 2.11402C15.6518 3.28832 15.8289 9.40106 15.6027 11.4402C15.48 12.5501 14.1038 14.1393 13.6515 15.2861C12.9295 17.116 12.1362 19.2927 10.8098 21.5658C9.48368 23.839 6.71209 25.6014 5.32479 27.3386C-0.579394 34.7286 1.95196 43.4163 8.43419 49.0343C14.9905 54.7165 42.3737 52.5957 34.634 39.5157M23.1201 20.2926C25.0442 28.2232 22.2822 36.5052 22.2822 44.2708C22.2822 45.1644 23.857 44.3021 24.6286 44.4618M13.0768 28.6259C14.6257 28.8828 16.0392 30.1631 17.1355 31.3599C22.5926 37.3181 15.6213 41.3222 15.2352 43.4284C15.148 43.9049 16.947 44.2328 17.3083 44.2765M20.8383 2.53546C21.8905 1.42404 22.0913 3.36936 22.2822 4.43902" stroke="#232323" stroke-width="3" stroke-linecap="round" stroke-linejoin="round"/>
</svg>
