<svg width="259" height="91" viewBox="0 0 259 91" fill="none" xmlns="http://www.w3.org/2000/svg">
<rect x="1" y="1" width="257" height="89" rx="25" fill="white" stroke="black" stroke-width="2"/>
<path d="M33.8146 46.2425C44.8062 43.3631 56.1004 44.1934 66.2344 45.8262C72.8786 46.8966 78.5137 49.3886 85.0216 47.6426C98.179 44.1127 90.4517 32.6672 80.5411 30.6125C74.9224 29.4477 72.3164 32.1283 67.7533 33.0741C67.258 33.1767 58.0227 17.6247 41.0339 27.0152C28.4095 33.9933 30.0723 59.2831 30.0723 70" stroke="black" stroke-opacity="0.9" stroke-width="4" stroke-linecap="round" stroke-linejoin="round"/>
<path d="M35.0813 49C34.5257 56.0468 37 63.1235 37 70" stroke="black" stroke-opacity="0.9" stroke-width="4" stroke-linecap="round" stroke-linejoin="round"/>
<path d="M64 49C64 57.294 64 65.7426 64 74" stroke="black" stroke-opacity="0.9" stroke-width="4" stroke-linecap="round" stroke-linejoin="round"/>
<path d="M70 50C70.5815 58.0644 71.6098 65.8557 72 74" stroke="black" stroke-opacity="0.9" stroke-width="4" stroke-linecap="round" stroke-linejoin="round"/>
<path d="M31 44C27.5408 32.5106 25.9729 20.645 24 9" stroke="black" stroke-opacity="0.9" stroke-width="4" stroke-linecap="round" stroke-linejoin="round"/>
<path d="M79.2252 27.282C79.2927 27.0172 78.6863 24.7352 79.2252 25.0254C81.7811 26.4018 79.6022 28.0515 83.2209 26.4278C83.4848 26.3095 84.3163 25.6873 84.6104 25.7266C85.3893 25.8318 85.7527 28.5007 86 29" stroke="black" stroke-opacity="0.9" stroke-width="4" stroke-linecap="round" stroke-linejoin="round"/>
<path d="M101.589 35H111.129C113.409 35 115.419 35.44 117.159 36.32C118.919 37.18 120.279 38.4 121.239 39.98C122.219 41.56 122.709 43.4 122.709 45.5C122.709 47.6 122.219 49.44 121.239 51.02C120.279 52.6 118.919 53.83 117.159 54.71C115.419 55.57 113.409 56 111.129 56H101.589V35ZM110.889 52.01C112.989 52.01 114.659 51.43 115.899 50.27C117.159 49.09 117.789 47.5 117.789 45.5C117.789 43.5 117.159 41.92 115.899 40.76C114.659 39.58 112.989 38.99 110.889 38.99H106.449V52.01H110.889ZM133.427 38.9V52.1H137.057V56H124.907V52.1H128.567V38.9H124.907V35H137.057V38.9H133.427ZM147.629 56.36C145.969 56.36 144.359 56.14 142.799 55.7C141.259 55.24 140.019 54.65 139.079 53.93L140.729 50.27C141.629 50.93 142.699 51.46 143.939 51.86C145.179 52.26 146.419 52.46 147.659 52.46C149.039 52.46 150.059 52.26 150.719 51.86C151.379 51.44 151.709 50.89 151.709 50.21C151.709 49.71 151.509 49.3 151.109 48.98C150.729 48.64 150.229 48.37 149.609 48.17C149.009 47.97 148.189 47.75 147.149 47.51C145.549 47.13 144.239 46.75 143.219 46.37C142.199 45.99 141.319 45.38 140.579 44.54C139.859 43.7 139.499 42.58 139.499 41.18C139.499 39.96 139.829 38.86 140.489 37.88C141.149 36.88 142.139 36.09 143.459 35.51C144.799 34.93 146.429 34.64 148.349 34.64C149.689 34.64 150.999 34.8 152.279 35.12C153.559 35.44 154.679 35.9 155.639 36.5L154.139 40.19C152.199 39.09 150.259 38.54 148.319 38.54C146.959 38.54 145.949 38.76 145.289 39.2C144.649 39.64 144.329 40.22 144.329 40.94C144.329 41.66 144.699 42.2 145.439 42.56C146.199 42.9 147.349 43.24 148.889 43.58C150.489 43.96 151.799 44.34 152.819 44.72C153.839 45.1 154.709 45.7 155.429 46.52C156.169 47.34 156.539 48.45 156.539 49.85C156.539 51.05 156.199 52.15 155.519 53.15C154.859 54.13 153.859 54.91 152.519 55.49C151.179 56.07 149.549 56.36 147.629 56.36ZM159.86 35H164.72V52.04H175.25V56H159.86V35ZM185.166 38.9V52.1H188.796V56H176.646V52.1H180.306V38.9H176.646V35H188.796V38.9H185.166ZM200.118 47.75L197.298 50.69V56H192.468V35H197.298V44.81L206.598 35H211.998L203.298 44.36L212.508 56H206.838L200.118 47.75ZM231.542 54.2C230.542 54.88 229.282 55.41 227.762 55.79C226.262 56.17 224.662 56.36 222.962 56.36C220.842 56.36 219.042 56.1 217.562 55.58C216.082 55.04 214.962 54.3 214.202 53.36C213.442 52.4 213.062 51.31 213.062 50.09C213.062 48.97 213.372 47.98 213.992 47.12C214.612 46.26 215.462 45.62 216.542 45.2C215.722 44.76 215.082 44.16 214.622 43.4C214.182 42.64 213.962 41.79 213.962 40.85C213.962 39.71 214.312 38.67 215.012 37.73C215.712 36.79 216.772 36.04 218.192 35.48C219.612 34.92 221.352 34.64 223.412 34.64C224.772 34.64 226.102 34.78 227.402 35.06C228.702 35.32 229.832 35.68 230.792 36.14L229.442 39.86C227.602 39 225.652 38.57 223.592 38.57C222.032 38.57 220.852 38.81 220.052 39.29C219.272 39.75 218.882 40.38 218.882 41.18C218.882 41.92 219.142 42.49 219.662 42.89C220.202 43.27 221.012 43.46 222.092 43.46H227.822V47.3H221.792C220.572 47.3 219.632 47.51 218.972 47.93C218.312 48.35 217.982 48.96 217.982 49.76C217.982 50.6 218.402 51.26 219.242 51.74C220.102 52.2 221.412 52.43 223.172 52.43C224.412 52.43 225.652 52.27 226.892 51.95C228.132 51.61 229.182 51.14 230.042 50.54L231.542 54.2Z" fill="black"/>
</svg>
