<svg width="501" height="585" viewBox="0 0 501 585" fill="none" xmlns="http://www.w3.org/2000/svg">
<g clip-path="url(#clip0_1_4)">
<rect width="501" height="585" rx="118" fill="white"/>
<path d="M102.241 429.336C100.243 429.336 98.4326 428.907 96.8086 428.048C95.2033 427.171 93.934 425.967 93.0006 424.436C92.086 422.887 91.6286 421.141 91.6286 419.2C91.6286 417.259 92.086 415.523 93.0006 413.992C93.934 412.443 95.2033 411.239 96.8086 410.38C98.4326 409.503 100.253 409.064 102.269 409.064C103.967 409.064 105.498 409.363 106.861 409.96C108.242 410.557 109.399 411.416 110.333 412.536L107.421 415.224C106.095 413.693 104.453 412.928 102.493 412.928C101.279 412.928 100.197 413.199 99.2446 413.74C98.2926 414.263 97.546 415 97.0046 415.952C96.482 416.904 96.2206 417.987 96.2206 419.2C96.2206 420.413 96.482 421.496 97.0046 422.448C97.546 423.4 98.2926 424.147 99.2446 424.688C100.197 425.211 101.279 425.472 102.493 425.472C104.453 425.472 106.095 424.697 107.421 423.148L110.333 425.836C109.399 426.975 108.242 427.843 106.861 428.44C105.479 429.037 103.939 429.336 102.241 429.336ZM127.856 413.936V429H123.684V427.264C122.602 428.571 121.034 429.224 118.98 429.224C117.562 429.224 116.274 428.907 115.116 428.272C113.978 427.637 113.082 426.732 112.428 425.556C111.775 424.38 111.448 423.017 111.448 421.468C111.448 419.919 111.775 418.556 112.428 417.38C113.082 416.204 113.978 415.299 115.116 414.664C116.274 414.029 117.562 413.712 118.98 413.712C120.903 413.712 122.406 414.319 123.488 415.532V413.936H127.856ZM119.736 425.64C120.838 425.64 121.752 425.267 122.48 424.52C123.208 423.755 123.572 422.737 123.572 421.468C123.572 420.199 123.208 419.191 122.48 418.444C121.752 417.679 120.838 417.296 119.736 417.296C118.616 417.296 117.692 417.679 116.964 418.444C116.236 419.191 115.872 420.199 115.872 421.468C115.872 422.737 116.236 423.755 116.964 424.52C117.692 425.267 118.616 425.64 119.736 425.64ZM140.972 428.272C140.543 428.589 140.011 428.832 139.376 429C138.76 429.149 138.116 429.224 137.444 429.224C135.634 429.224 134.243 428.767 133.272 427.852C132.302 426.937 131.816 425.593 131.816 423.82V410.604H136.184V414.272H139.908V417.632H136.184V423.764C136.184 424.399 136.343 424.893 136.66 425.248C136.978 425.584 137.435 425.752 138.032 425.752C138.704 425.752 139.302 425.565 139.824 425.192L140.972 428.272ZM148.507 429.224C147.257 429.224 146.034 429.075 144.839 428.776C143.645 428.459 142.693 428.067 141.983 427.6L143.439 424.464C144.111 424.893 144.923 425.248 145.875 425.528C146.827 425.789 147.761 425.92 148.675 425.92C150.523 425.92 151.447 425.463 151.447 424.548C151.447 424.119 151.195 423.811 150.691 423.624C150.187 423.437 149.413 423.279 148.367 423.148C147.135 422.961 146.118 422.747 145.315 422.504C144.513 422.261 143.813 421.832 143.215 421.216C142.637 420.6 142.347 419.723 142.347 418.584C142.347 417.632 142.618 416.792 143.159 416.064C143.719 415.317 144.522 414.739 145.567 414.328C146.631 413.917 147.882 413.712 149.319 413.712C150.383 413.712 151.438 413.833 152.483 414.076C153.547 414.3 154.425 414.617 155.115 415.028L153.659 418.136C152.334 417.389 150.887 417.016 149.319 417.016C148.386 417.016 147.686 417.147 147.219 417.408C146.753 417.669 146.519 418.005 146.519 418.416C146.519 418.883 146.771 419.209 147.275 419.396C147.779 419.583 148.582 419.76 149.683 419.928C150.915 420.133 151.923 420.357 152.707 420.6C153.491 420.824 154.173 421.244 154.751 421.86C155.33 422.476 155.619 423.335 155.619 424.436C155.619 425.369 155.339 426.2 154.779 426.928C154.219 427.656 153.398 428.225 152.315 428.636C151.251 429.028 149.982 429.224 148.507 429.224ZM181.532 413.936V429H177.36V427.264C176.277 428.571 174.709 429.224 172.656 429.224C171.237 429.224 169.949 428.907 168.792 428.272C167.653 427.637 166.757 426.732 166.104 425.556C165.451 424.38 165.124 423.017 165.124 421.468C165.124 419.919 165.451 418.556 166.104 417.38C166.757 416.204 167.653 415.299 168.792 414.664C169.949 414.029 171.237 413.712 172.656 413.712C174.579 413.712 176.081 414.319 177.164 415.532V413.936H181.532ZM173.412 425.64C174.513 425.64 175.428 425.267 176.156 424.52C176.884 423.755 177.248 422.737 177.248 421.468C177.248 420.199 176.884 419.191 176.156 418.444C175.428 417.679 174.513 417.296 173.412 417.296C172.292 417.296 171.368 417.679 170.64 418.444C169.912 419.191 169.548 420.199 169.548 421.468C169.548 422.737 169.912 423.755 170.64 424.52C171.368 425.267 172.292 425.64 173.412 425.64ZM189.748 415.924C190.271 415.196 190.971 414.645 191.848 414.272C192.744 413.899 193.771 413.712 194.928 413.712V417.744C194.443 417.707 194.116 417.688 193.948 417.688C192.697 417.688 191.717 418.043 191.008 418.752C190.299 419.443 189.944 420.488 189.944 421.888V429H185.576V413.936H189.748V415.924ZM204.977 425.724C205.761 425.724 206.451 425.612 207.049 425.388C207.665 425.145 208.234 424.772 208.757 424.268L211.081 426.788C209.662 428.412 207.59 429.224 204.865 429.224C203.166 429.224 201.663 428.897 200.357 428.244C199.05 427.572 198.042 426.648 197.333 425.472C196.623 424.296 196.269 422.961 196.269 421.468C196.269 419.993 196.614 418.668 197.305 417.492C198.014 416.297 198.975 415.373 200.189 414.72C201.421 414.048 202.802 413.712 204.333 413.712C205.77 413.712 207.077 414.02 208.253 414.636C209.429 415.233 210.362 416.111 211.053 417.268C211.762 418.407 212.117 419.76 212.117 421.328L200.973 423.484C201.29 424.231 201.785 424.791 202.457 425.164C203.147 425.537 203.987 425.724 204.977 425.724ZM204.333 417.016C203.231 417.016 202.335 417.371 201.645 418.08C200.954 418.789 200.59 419.769 200.553 421.02L207.889 419.592C207.683 418.808 207.263 418.183 206.629 417.716C205.994 417.249 205.229 417.016 204.333 417.016ZM232.138 413.712C234.005 413.712 235.508 414.272 236.646 415.392C237.804 416.512 238.382 418.173 238.382 420.376V429H234.014V421.048C234.014 419.853 233.753 418.967 233.23 418.388C232.708 417.791 231.952 417.492 230.962 417.492C229.861 417.492 228.984 417.837 228.33 418.528C227.677 419.2 227.35 420.208 227.35 421.552V429H222.982V413.936H227.154V415.7C227.733 415.065 228.452 414.58 229.31 414.244C230.169 413.889 231.112 413.712 232.138 413.712ZM249.674 429.224C248.087 429.224 246.659 428.897 245.39 428.244C244.139 427.572 243.159 426.648 242.45 425.472C241.74 424.296 241.386 422.961 241.386 421.468C241.386 419.975 241.74 418.64 242.45 417.464C243.159 416.288 244.139 415.373 245.39 414.72C246.659 414.048 248.087 413.712 249.674 413.712C251.26 413.712 252.679 414.048 253.93 414.72C255.18 415.373 256.16 416.288 256.87 417.464C257.579 418.64 257.934 419.975 257.934 421.468C257.934 422.961 257.579 424.296 256.87 425.472C256.16 426.648 255.18 427.572 253.93 428.244C252.679 428.897 251.26 429.224 249.674 429.224ZM249.674 425.64C250.794 425.64 251.708 425.267 252.418 424.52C253.146 423.755 253.51 422.737 253.51 421.468C253.51 420.199 253.146 419.191 252.418 418.444C251.708 417.679 250.794 417.296 249.674 417.296C248.554 417.296 247.63 417.679 246.902 418.444C246.174 419.191 245.81 420.199 245.81 421.468C245.81 422.737 246.174 423.755 246.902 424.52C247.63 425.267 248.554 425.64 249.674 425.64ZM269.925 428.272C269.496 428.589 268.964 428.832 268.329 429C267.713 429.149 267.069 429.224 266.397 429.224C264.587 429.224 263.196 428.767 262.225 427.852C261.255 426.937 260.769 425.593 260.769 423.82V410.604H265.137V414.272H268.861V417.632H265.137V423.764C265.137 424.399 265.296 424.893 265.613 425.248C265.931 425.584 266.388 425.752 266.985 425.752C267.657 425.752 268.255 425.565 268.777 425.192L269.925 428.272ZM285.726 429.224C284.027 429.224 282.702 428.776 281.75 427.88C280.798 426.965 280.322 425.677 280.322 424.016V408.224H284.69V423.764C284.69 424.399 284.849 424.893 285.166 425.248C285.502 425.584 285.969 425.752 286.566 425.752C286.79 425.752 287.014 425.724 287.238 425.668C287.481 425.612 287.667 425.547 287.798 425.472L287.994 428.86C287.266 429.103 286.51 429.224 285.726 429.224ZM297.033 429.224C295.446 429.224 294.018 428.897 292.749 428.244C291.498 427.572 290.518 426.648 289.809 425.472C289.1 424.296 288.745 422.961 288.745 421.468C288.745 419.975 289.1 418.64 289.809 417.464C290.518 416.288 291.498 415.373 292.749 414.72C294.018 414.048 295.446 413.712 297.033 413.712C298.62 413.712 300.038 414.048 301.289 414.72C302.54 415.373 303.52 416.288 304.229 417.464C304.938 418.64 305.293 419.975 305.293 421.468C305.293 422.961 304.938 424.296 304.229 425.472C303.52 426.648 302.54 427.572 301.289 428.244C300.038 428.897 298.62 429.224 297.033 429.224ZM297.033 425.64C298.153 425.64 299.068 425.267 299.777 424.52C300.505 423.755 300.869 422.737 300.869 421.468C300.869 420.199 300.505 419.191 299.777 418.444C299.068 417.679 298.153 417.296 297.033 417.296C295.913 417.296 294.989 417.679 294.261 418.444C293.533 419.191 293.169 420.199 293.169 421.468C293.169 422.737 293.533 423.755 294.261 424.52C294.989 425.267 295.913 425.64 297.033 425.64ZM323.501 413.936V429H319.329V427.264C318.246 428.571 316.678 429.224 314.625 429.224C313.206 429.224 311.918 428.907 310.761 428.272C309.622 427.637 308.726 426.732 308.073 425.556C307.419 424.38 307.093 423.017 307.093 421.468C307.093 419.919 307.419 418.556 308.073 417.38C308.726 416.204 309.622 415.299 310.761 414.664C311.918 414.029 313.206 413.712 314.625 413.712C316.547 413.712 318.05 414.319 319.133 415.532V413.936H323.501ZM315.381 425.64C316.482 425.64 317.397 425.267 318.125 424.52C318.853 423.755 319.217 422.737 319.217 421.468C319.217 420.199 318.853 419.191 318.125 418.444C317.397 417.679 316.482 417.296 315.381 417.296C314.261 417.296 313.337 417.679 312.609 418.444C311.881 419.191 311.517 420.199 311.517 421.468C311.517 422.737 311.881 423.755 312.609 424.52C313.337 425.267 314.261 425.64 315.381 425.64ZM331.801 414.272H335.665V417.632H331.913V429H327.545V413.6C327.545 411.883 328.049 410.52 329.057 409.512C330.083 408.504 331.521 408 333.369 408C334.022 408 334.638 408.075 335.217 408.224C335.814 408.355 336.309 408.551 336.701 408.812L335.553 411.976C335.049 411.621 334.461 411.444 333.789 411.444C332.463 411.444 331.801 412.172 331.801 413.628V414.272ZM340.089 413.936H344.457V429H340.089V413.936ZM342.273 411.836C341.47 411.836 340.817 411.603 340.313 411.136C339.809 410.669 339.557 410.091 339.557 409.4C339.557 408.709 339.809 408.131 340.313 407.664C340.817 407.197 341.47 406.964 342.273 406.964C343.075 406.964 343.729 407.188 344.233 407.636C344.737 408.084 344.989 408.644 344.989 409.316C344.989 410.044 344.737 410.651 344.233 411.136C343.729 411.603 343.075 411.836 342.273 411.836ZM357.673 413.712C359.54 413.712 361.043 414.272 362.181 415.392C363.339 416.512 363.917 418.173 363.917 420.376V429H359.549V421.048C359.549 419.853 359.288 418.967 358.765 418.388C358.243 417.791 357.487 417.492 356.497 417.492C355.396 417.492 354.519 417.837 353.865 418.528C353.212 419.2 352.885 420.208 352.885 421.552V429H348.517V413.936H352.689V415.7C353.268 415.065 353.987 414.58 354.845 414.244C355.704 413.889 356.647 413.712 357.673 413.712ZM383.581 413.936V426.48C383.581 429.243 382.862 431.296 381.425 432.64C379.988 433.984 377.888 434.656 375.125 434.656C373.669 434.656 372.288 434.479 370.981 434.124C369.674 433.769 368.592 433.256 367.733 432.584L369.469 429.448C370.104 429.971 370.906 430.381 371.877 430.68C372.848 430.997 373.818 431.156 374.789 431.156C376.301 431.156 377.412 430.811 378.121 430.12C378.849 429.448 379.213 428.421 379.213 427.04V426.396C378.074 427.647 376.488 428.272 374.453 428.272C373.072 428.272 371.802 427.973 370.645 427.376C369.506 426.76 368.601 425.901 367.929 424.8C367.257 423.699 366.921 422.429 366.921 420.992C366.921 419.555 367.257 418.285 367.929 417.184C368.601 416.083 369.506 415.233 370.645 414.636C371.802 414.02 373.072 413.712 374.453 413.712C376.637 413.712 378.298 414.431 379.437 415.868V413.936H383.581ZM375.321 424.688C376.478 424.688 377.421 424.352 378.149 423.68C378.896 422.989 379.269 422.093 379.269 420.992C379.269 419.891 378.896 419.004 378.149 418.332C377.421 417.641 376.478 417.296 375.321 417.296C374.164 417.296 373.212 417.641 372.465 418.332C371.718 419.004 371.345 419.891 371.345 420.992C371.345 422.093 371.718 422.989 372.465 423.68C373.212 424.352 374.164 424.688 375.321 424.688ZM397.228 419.172C396.463 419.172 395.819 418.911 395.296 418.388C394.773 417.865 394.512 417.212 394.512 416.428C394.512 415.625 394.773 414.981 395.296 414.496C395.819 413.992 396.463 413.74 397.228 413.74C397.993 413.74 398.637 413.992 399.16 414.496C399.683 414.981 399.944 415.625 399.944 416.428C399.944 417.212 399.683 417.865 399.16 418.388C398.637 418.911 397.993 419.172 397.228 419.172ZM397.228 429.224C396.463 429.224 395.819 428.963 395.296 428.44C394.773 427.917 394.512 427.264 394.512 426.48C394.512 425.677 394.773 425.033 395.296 424.548C395.819 424.044 396.463 423.792 397.228 423.792C397.993 423.792 398.637 424.044 399.16 424.548C399.683 425.033 399.944 425.677 399.944 426.48C399.944 427.264 399.683 427.917 399.16 428.44C398.637 428.963 397.993 429.224 397.228 429.224ZM406.432 434.432C405.312 432.733 404.444 430.764 403.828 428.524C403.231 426.284 402.932 423.885 402.932 421.328C402.932 418.771 403.231 416.372 403.828 414.132C404.444 411.873 405.312 409.904 406.432 408.224H410.604C409.428 410.296 408.57 412.405 408.028 414.552C407.487 416.68 407.216 418.939 407.216 421.328C407.216 423.717 407.487 425.985 408.028 428.132C408.57 430.26 409.428 432.36 410.604 434.432H406.432Z" fill="#2E2E2E"/>
<path d="M257.81 337C326.019 326.994 372.666 256.51 336.326 186.283C291.42 99.5131 140.742 162.211 152.67 257.312C160.496 319.69 260.904 338.32 277.915 272.037C280.921 260.315 279.664 205.481 264.91 201.563C263.532 201.194 245.894 220.642 238.122 220.642C232.016 220.642 218.421 188.755 204.018 220.642" stroke="#2E2E2E" stroke-width="20" stroke-linecap="round" stroke-linejoin="round"/>
</g>
<defs>
<clipPath id="clip0_1_4">
<rect width="501" height="585" fill="white"/>
</clipPath>
</defs>
</svg>
