<svg width="300" height="300" viewBox="0 0 300 300" fill="none" xmlns="http://www.w3.org/2000/svg">
<g clip-path="url(#clip0_17_58)">
<mask id="mask0_17_58" style="mask-type:alpha" maskUnits="userSpaceOnUse" x="0" y="0" width="300" height="300">
<rect width="300" height="300" rx="79" fill="#FD3A73"/>
</mask>
<g mask="url(#mask0_17_58)">
<rect width="300" height="300" rx="79" fill="#FD3A73"/>
<path d="M100.673 -45.2575C87.9935 -31.9429 78.7521 -14.2622 73.8585 6.22549C71.4016 16.4343 70.3862 24.3259 70.0892 35.2299C69.7602 48.1255 71.1561 59.7288 74.3054 70.6269C75.22 73.7779 75.8835 76.3567 75.7936 76.3895C75.7038 76.4222 74.4527 75.8273 73.0066 75.049C66.7597 71.7616 56.6787 68.024 48.6398 66.0422C17.9415 58.4908 -14.6309 61.7876 -38.2195 74.8187C-48.852 80.7173 -57.446 88.5057 -63.6399 97.9635C-67.2802 103.46 -70.8944 112.077 -72.4577 118.864C-77.5722 140.936 -72.8001 167.348 -58.2571 197.455C-53.7743 206.739 -49.3221 214.696 -44.813 221.382C-41.1812 226.806 -32.1546 237.421 -27.2782 242.048C-9.07005 259.217 12.6212 271.765 40.9248 281.527C61.5635 288.641 81.9818 293.235 109.428 296.916C149.612 302.339 187.221 303.489 258.398 301.545C271.013 301.206 269.901 302.021 271.671 291.741C273.155 282.971 274.71 274.838 278.694 254.295C289.324 199.507 293.188 174.395 295.322 145.82C298.354 105.526 295.69 71.908 287.229 43.7874C282.071 26.6528 275.598 12.9066 266.066 -1.20752C262.839 -5.97133 252.76 -17.9614 248.795 -21.7484C230.113 -39.4745 205.171 -55.1075 184.286 -62.1867C174.901 -65.337 164.617 -67.3303 156.154 -67.6425C148.003 -67.9575 137.581 -66.5157 130.223 -64.0999C119.746 -60.6472 108.568 -53.499 100.673 -45.2575Z" fill="#2E2E2E"/>
<path d="M157.347 249C225.902 238.681 272.787 165.995 236.262 93.5735C191.127 4.09164 39.6844 68.7489 51.6736 166.822C59.5393 231.149 160.457 250.362 177.554 182.007C180.576 169.918 179.312 113.371 164.484 109.33C163.098 108.95 145.371 129.006 137.559 129.006C131.422 129.006 117.758 96.1223 103.282 129.006" stroke="white" stroke-width="15" stroke-linecap="round" stroke-linejoin="round"/>
</g>
</g>
<defs>
<clipPath id="clip0_17_58">
<rect width="300" height="300" fill="white"/>
</clipPath>
</defs>
</svg>
