<svg width="500" height="585" viewBox="0 0 500 585" fill="none" xmlns="http://www.w3.org/2000/svg">
<g clip-path="url(#clip0_3_8)">
<rect x="-1" width="501" height="585" rx="118" fill="white"/>
<path d="M132.145 431.336C130.147 431.336 128.337 430.907 126.713 430.048C125.107 429.171 123.838 427.967 122.905 426.436C121.99 424.887 121.533 423.141 121.533 421.2C121.533 419.259 121.99 417.523 122.905 415.992C123.838 414.443 125.107 413.239 126.713 412.38C128.337 411.503 130.157 411.064 132.173 411.064C133.871 411.064 135.402 411.363 136.765 411.96C138.146 412.557 139.303 413.416 140.237 414.536L137.325 417.224C135.999 415.693 134.357 414.928 132.397 414.928C131.183 414.928 130.101 415.199 129.149 415.74C128.197 416.263 127.45 417 126.909 417.952C126.386 418.904 126.125 419.987 126.125 421.2C126.125 422.413 126.386 423.496 126.909 424.448C127.45 425.4 128.197 426.147 129.149 426.688C130.101 427.211 131.183 427.472 132.397 427.472C134.357 427.472 135.999 426.697 137.325 425.148L140.237 427.836C139.303 428.975 138.146 429.843 136.765 430.44C135.383 431.037 133.843 431.336 132.145 431.336ZM157.76 415.936V431H153.588V429.264C152.506 430.571 150.938 431.224 148.884 431.224C147.466 431.224 146.178 430.907 145.02 430.272C143.882 429.637 142.986 428.732 142.332 427.556C141.679 426.38 141.352 425.017 141.352 423.468C141.352 421.919 141.679 420.556 142.332 419.38C142.986 418.204 143.882 417.299 145.02 416.664C146.178 416.029 147.466 415.712 148.884 415.712C150.807 415.712 152.31 416.319 153.392 417.532V415.936H157.76ZM149.64 427.64C150.742 427.64 151.656 427.267 152.384 426.52C153.112 425.755 153.476 424.737 153.476 423.468C153.476 422.199 153.112 421.191 152.384 420.444C151.656 419.679 150.742 419.296 149.64 419.296C148.52 419.296 147.596 419.679 146.868 420.444C146.14 421.191 145.776 422.199 145.776 423.468C145.776 424.737 146.14 425.755 146.868 426.52C147.596 427.267 148.52 427.64 149.64 427.64ZM170.876 430.272C170.447 430.589 169.915 430.832 169.28 431C168.664 431.149 168.02 431.224 167.348 431.224C165.538 431.224 164.147 430.767 163.176 429.852C162.206 428.937 161.72 427.593 161.72 425.82V412.604H166.088V416.272H169.812V419.632H166.088V425.764C166.088 426.399 166.247 426.893 166.564 427.248C166.882 427.584 167.339 427.752 167.936 427.752C168.608 427.752 169.206 427.565 169.728 427.192L170.876 430.272ZM178.411 431.224C177.161 431.224 175.938 431.075 174.743 430.776C173.549 430.459 172.597 430.067 171.887 429.6L173.343 426.464C174.015 426.893 174.827 427.248 175.779 427.528C176.731 427.789 177.665 427.92 178.579 427.92C180.427 427.92 181.351 427.463 181.351 426.548C181.351 426.119 181.099 425.811 180.595 425.624C180.091 425.437 179.317 425.279 178.271 425.148C177.039 424.961 176.022 424.747 175.219 424.504C174.417 424.261 173.717 423.832 173.119 423.216C172.541 422.6 172.251 421.723 172.251 420.584C172.251 419.632 172.522 418.792 173.063 418.064C173.623 417.317 174.426 416.739 175.471 416.328C176.535 415.917 177.786 415.712 179.223 415.712C180.287 415.712 181.342 415.833 182.387 416.076C183.451 416.3 184.329 416.617 185.019 417.028L183.563 420.136C182.238 419.389 180.791 419.016 179.223 419.016C178.29 419.016 177.59 419.147 177.123 419.408C176.657 419.669 176.423 420.005 176.423 420.416C176.423 420.883 176.675 421.209 177.179 421.396C177.683 421.583 178.486 421.76 179.587 421.928C180.819 422.133 181.827 422.357 182.611 422.6C183.395 422.824 184.077 423.244 184.655 423.86C185.234 424.476 185.523 425.335 185.523 426.436C185.523 427.369 185.243 428.2 184.683 428.928C184.123 429.656 183.302 430.225 182.219 430.636C181.155 431.028 179.886 431.224 178.411 431.224ZM211.436 415.936V431H207.264V429.264C206.181 430.571 204.613 431.224 202.56 431.224C201.141 431.224 199.853 430.907 198.696 430.272C197.557 429.637 196.661 428.732 196.008 427.556C195.355 426.38 195.028 425.017 195.028 423.468C195.028 421.919 195.355 420.556 196.008 419.38C196.661 418.204 197.557 417.299 198.696 416.664C199.853 416.029 201.141 415.712 202.56 415.712C204.483 415.712 205.985 416.319 207.068 417.532V415.936H211.436ZM203.316 427.64C204.417 427.64 205.332 427.267 206.06 426.52C206.788 425.755 207.152 424.737 207.152 423.468C207.152 422.199 206.788 421.191 206.06 420.444C205.332 419.679 204.417 419.296 203.316 419.296C202.196 419.296 201.272 419.679 200.544 420.444C199.816 421.191 199.452 422.199 199.452 423.468C199.452 424.737 199.816 425.755 200.544 426.52C201.272 427.267 202.196 427.64 203.316 427.64ZM219.652 417.924C220.175 417.196 220.875 416.645 221.752 416.272C222.648 415.899 223.675 415.712 224.832 415.712V419.744C224.347 419.707 224.02 419.688 223.852 419.688C222.601 419.688 221.621 420.043 220.912 420.752C220.203 421.443 219.848 422.488 219.848 423.888V431H215.48V415.936H219.652V417.924ZM234.88 427.724C235.664 427.724 236.355 427.612 236.952 427.388C237.568 427.145 238.138 426.772 238.66 426.268L240.984 428.788C239.566 430.412 237.494 431.224 234.768 431.224C233.07 431.224 231.567 430.897 230.26 430.244C228.954 429.572 227.946 428.648 227.236 427.472C226.527 426.296 226.172 424.961 226.172 423.468C226.172 421.993 226.518 420.668 227.208 419.492C227.918 418.297 228.879 417.373 230.092 416.72C231.324 416.048 232.706 415.712 234.236 415.712C235.674 415.712 236.98 416.02 238.156 416.636C239.332 417.233 240.266 418.111 240.956 419.268C241.666 420.407 242.02 421.76 242.02 423.328L230.876 425.484C231.194 426.231 231.688 426.791 232.36 427.164C233.051 427.537 233.891 427.724 234.88 427.724ZM234.236 419.016C233.135 419.016 232.239 419.371 231.548 420.08C230.858 420.789 230.494 421.769 230.456 423.02L237.792 421.592C237.587 420.808 237.167 420.183 236.532 419.716C235.898 419.249 235.132 419.016 234.236 419.016ZM258.29 431.224C256.592 431.224 255.266 430.776 254.314 429.88C253.362 428.965 252.886 427.677 252.886 426.016V410.224H257.254V425.764C257.254 426.399 257.413 426.893 257.73 427.248C258.066 427.584 258.533 427.752 259.13 427.752C259.354 427.752 259.578 427.724 259.802 427.668C260.045 427.612 260.232 427.547 260.362 427.472L260.558 430.86C259.83 431.103 259.074 431.224 258.29 431.224ZM269.597 431.224C268.011 431.224 266.583 430.897 265.313 430.244C264.063 429.572 263.083 428.648 262.373 427.472C261.664 426.296 261.309 424.961 261.309 423.468C261.309 421.975 261.664 420.64 262.373 419.464C263.083 418.288 264.063 417.373 265.313 416.72C266.583 416.048 268.011 415.712 269.597 415.712C271.184 415.712 272.603 416.048 273.853 416.72C275.104 417.373 276.084 418.288 276.793 419.464C277.503 420.64 277.857 421.975 277.857 423.468C277.857 424.961 277.503 426.296 276.793 427.472C276.084 428.648 275.104 429.572 273.853 430.244C272.603 430.897 271.184 431.224 269.597 431.224ZM269.597 427.64C270.717 427.64 271.632 427.267 272.341 426.52C273.069 425.755 273.433 424.737 273.433 423.468C273.433 422.199 273.069 421.191 272.341 420.444C271.632 419.679 270.717 419.296 269.597 419.296C268.477 419.296 267.553 419.679 266.825 420.444C266.097 421.191 265.733 422.199 265.733 423.468C265.733 424.737 266.097 425.755 266.825 426.52C267.553 427.267 268.477 427.64 269.597 427.64ZM296.065 415.936V431H291.893V429.264C290.81 430.571 289.242 431.224 287.189 431.224C285.77 431.224 284.482 430.907 283.325 430.272C282.186 429.637 281.29 428.732 280.637 427.556C279.984 426.38 279.657 425.017 279.657 423.468C279.657 421.919 279.984 420.556 280.637 419.38C281.29 418.204 282.186 417.299 283.325 416.664C284.482 416.029 285.77 415.712 287.189 415.712C289.112 415.712 290.614 416.319 291.697 417.532V415.936H296.065ZM287.945 427.64C289.046 427.64 289.961 427.267 290.689 426.52C291.417 425.755 291.781 424.737 291.781 423.468C291.781 422.199 291.417 421.191 290.689 420.444C289.961 419.679 289.046 419.296 287.945 419.296C286.825 419.296 285.901 419.679 285.173 420.444C284.445 421.191 284.081 422.199 284.081 423.468C284.081 424.737 284.445 425.755 285.173 426.52C285.901 427.267 286.825 427.64 287.945 427.64ZM304.365 416.272H308.229V419.632H304.477V431H300.109V415.6C300.109 413.883 300.613 412.52 301.621 411.512C302.648 410.504 304.085 410 305.933 410C306.586 410 307.202 410.075 307.781 410.224C308.378 410.355 308.873 410.551 309.265 410.812L308.117 413.976C307.613 413.621 307.025 413.444 306.353 413.444C305.028 413.444 304.365 414.172 304.365 415.628V416.272ZM312.653 415.936H317.021V431H312.653V415.936ZM314.837 413.836C314.034 413.836 313.381 413.603 312.877 413.136C312.373 412.669 312.121 412.091 312.121 411.4C312.121 410.709 312.373 410.131 312.877 409.664C313.381 409.197 314.034 408.964 314.837 408.964C315.64 408.964 316.293 409.188 316.797 409.636C317.301 410.084 317.553 410.644 317.553 411.316C317.553 412.044 317.301 412.651 316.797 413.136C316.293 413.603 315.64 413.836 314.837 413.836ZM330.238 415.712C332.104 415.712 333.607 416.272 334.746 417.392C335.903 418.512 336.482 420.173 336.482 422.376V431H332.114V423.048C332.114 421.853 331.852 420.967 331.33 420.388C330.807 419.791 330.051 419.492 329.062 419.492C327.96 419.492 327.083 419.837 326.43 420.528C325.776 421.2 325.45 422.208 325.45 423.552V431H321.082V415.936H325.254V417.7C325.832 417.065 326.551 416.58 327.41 416.244C328.268 415.889 329.211 415.712 330.238 415.712ZM356.145 415.936V428.48C356.145 431.243 355.426 433.296 353.989 434.64C352.552 435.984 350.452 436.656 347.689 436.656C346.233 436.656 344.852 436.479 343.545 436.124C342.238 435.769 341.156 435.256 340.297 434.584L342.033 431.448C342.668 431.971 343.47 432.381 344.441 432.68C345.412 432.997 346.382 433.156 347.353 433.156C348.865 433.156 349.976 432.811 350.685 432.12C351.413 431.448 351.777 430.421 351.777 429.04V428.396C350.638 429.647 349.052 430.272 347.017 430.272C345.636 430.272 344.366 429.973 343.209 429.376C342.07 428.76 341.165 427.901 340.493 426.8C339.821 425.699 339.485 424.429 339.485 422.992C339.485 421.555 339.821 420.285 340.493 419.184C341.165 418.083 342.07 417.233 343.209 416.636C344.366 416.02 345.636 415.712 347.017 415.712C349.201 415.712 350.862 416.431 352.001 417.868V415.936H356.145ZM347.885 426.688C349.042 426.688 349.985 426.352 350.713 425.68C351.46 424.989 351.833 424.093 351.833 422.992C351.833 421.891 351.46 421.004 350.713 420.332C349.985 419.641 349.042 419.296 347.885 419.296C346.728 419.296 345.776 419.641 345.029 420.332C344.282 421.004 343.909 421.891 343.909 422.992C343.909 424.093 344.282 424.989 345.029 425.68C345.776 426.352 346.728 426.688 347.885 426.688ZM361.862 431.224C361.097 431.224 360.453 430.963 359.93 430.44C359.408 429.917 359.146 429.264 359.146 428.48C359.146 427.677 359.408 427.033 359.93 426.548C360.453 426.044 361.097 425.792 361.862 425.792C362.628 425.792 363.272 426.044 363.794 426.548C364.317 427.033 364.578 427.677 364.578 428.48C364.578 429.264 364.317 429.917 363.794 430.44C363.272 430.963 362.628 431.224 361.862 431.224ZM369.191 431.224C368.425 431.224 367.781 430.963 367.259 430.44C366.736 429.917 366.475 429.264 366.475 428.48C366.475 427.677 366.736 427.033 367.259 426.548C367.781 426.044 368.425 425.792 369.191 425.792C369.956 425.792 370.6 426.044 371.123 426.548C371.645 427.033 371.907 427.677 371.907 428.48C371.907 429.264 371.645 429.917 371.123 430.44C370.6 430.963 369.956 431.224 369.191 431.224ZM376.519 431.224C375.753 431.224 375.109 430.963 374.587 430.44C374.064 429.917 373.803 429.264 373.803 428.48C373.803 427.677 374.064 427.033 374.587 426.548C375.109 426.044 375.753 425.792 376.519 425.792C377.284 425.792 377.928 426.044 378.451 426.548C378.973 427.033 379.235 427.677 379.235 428.48C379.235 429.264 378.973 429.917 378.451 430.44C377.928 430.963 377.284 431.224 376.519 431.224Z" fill="#2E2E2E"/>
<path d="M311.182 293.68C335.121 265.902 300.513 262.013 297.98 253.941C297.548 252.558 300.853 232.904 299.448 232.904C289.042 232.904 275.328 273.768 248.835 262.513C223.747 251.853 223.128 208.287 196.755 196.283C130.612 166.171 153.773 305.064 160.078 331.856M348 338.432C319.485 344.19 287.14 304.316 278.927 302.328C271.497 300.528 193.586 344.016 157.861 242.411M161.158 201.835C198.987 65.7954 267.03 230.272 281.353 193.96" stroke="#2E2E2E" stroke-width="20" stroke-linecap="round" stroke-linejoin="round"/>
</g>
<defs>
<clipPath id="clip0_3_8">
<rect width="500" height="585" fill="white"/>
</clipPath>
</defs>
</svg>
